{"title":"Welcome To Karachi (2015) Pre DvD Rip - X264 - [1CD] - Team IcTv","uid":11972298,"size":733323284,"categoryP":"video","categoryS":"movies","magnet":"?xt=urn:btih:482ff34d9439a19a4c3702a58a837fa79158e1fb&amp;dn=Welcome+To+Karachi+%282015%29+Pre+DvD+Rip+-+X264+-+%5B1CD%5D+-+Team+IcTv&amp;tr=udp%3A%2F%2Ftracker.openbittorrent.com%3A80&amp;tr=udp%3A%2F%2Fopen.demonii.com%3A1337&amp;tr=udp%3A%2F%2Ftracker.coppersurfer.tk%3A6969&amp;tr=udp%3A%2F%2Fexodus.desync.com%3A6969","seeders":4,"leechers":0,"uploader":"SS132203","files":22,"time":1432887330,"description":"Welcome To Karachi (2015) Pre DvD Rip - X264 - [1CD] - Team IcTv Exclusive\n &lt;a href=&quot;\nhttp://imgsparrow.co/image/47&quot; rel=&quot;nofollow&quot; target=&quot;_NEW&quot;&gt;\nhttp://imgsparrow.co/image/47&lt;/a&gt;\n &lt;a href=&quot;\nhttp://imgsparrow.co/image/Gy&quot; rel=&quot;nofollow&quot; target=&quot;_NEW&quot;&gt;\nhttp://imgsparrow.co/image/Gy&lt;/a&gt;\n\nInfo : - \n\nAll Credit Goes To Intellect Clever &amp; IcTv\n\nMovie Info\nBanner : Pooja Entertainment India Ltd.\nYear : 2015\nCast : Jackky Bhagnani.Arshad Warsi.Lauren Gottlieb\nVideo: X264\nAudio : AC 3\nGenre : Comedy\nSubtitles :Nope\nResolution : 640 x 272\nRuntime : 2hr 08min XX\nSource : Team IcTv\n\nFormat : Matroska\nFormat version : Version 2\nFile size : 697 MiB\nDuration : 2h 8mn\nOverall bit rate : 760 Kbps\nEncoded date : UTC 2015-05-29 05:56:18\nWriting application : mkvmerge v7.7.0 ('Six Voices') 32bit built on Feb 28 2015 23:23:00\nWriting library : libebml v1.3.1 + libmatroska v1.4.2\nDURATION : 02:08:20.544000000\nNUMBER_OF_FRAMES : 240642\nNUMBER_OF_BYTES : 369626112\n\nVideo\nID : 1\nFormat : AVC\nFormat/Info : Advanced Video Codec\nFormat profile : &lt;a class=&quot;__cf_email__&quot; href=&quot;/cdn-cgi/l/email-protection&quot; data-cfemail=&quot;1f577678775f532d312e&quot;&gt;[email&amp;#160;protected]&lt;/a&gt;&lt;script data-cfhash='f9e31' type=&quot;text/javascript&quot;&gt;\n/* &lt;![CDATA[ */!function(){try{var t=&quot;currentScript&quot;in document?document.currentScript:function(){for(var t=document.getElementsByTagName(&quot;script&quot;),e=t.length;e--;)if(t[e].getAttribute(&quot;data-cfhash&quot;))return t[e]}();if(t&amp;&amp;t.previousSibling){var e,r,n,i,c=t.previousSibling,a=c.getAttribute(&quot;data-cfemail&quot;);if(a){for(e=&quot;&quot;,r=parseInt(a.substr(0,2),16),n=2;a.length-n;n+=2)i=parseInt(a.substr(n,2),16)^r,e+=String.fromCharCode(i);e=document.createTextNode(e),c.parentNode.replaceChild(e,c)}t.parentNode.removeChild(t);}}catch(u){}}()/* ]]&gt; */&lt;/script&gt;\nFormat settings, CABAC : Yes\nFormat settings, ReFrames : 4 frames\nCodec ID : V_MPEG4/ISO/AVC\nDuration : 2h 8mn\nBit rate : 374 Kbps\nWidth : 640 pixels\nHeight : 272 pixels\nDisplay aspect ratio : 2.35:1\nFrame rate : 25.000 fps\nColor space : YUV\nChroma subsampling : 4:2:0\nBit depth : 8 bits\nScan type : Progressive\nBits/(Pixel*Frame) : 0.086\nStream size : 331 MiB (47%)\n\nAudio\nID : 2\nFormat : AC-3\nFormat/Info : Audio Coding 3\nMode extension : CM (complete main)\nCodec ID : A_AC3\nDuration : 2h 8mn\nBit rate mode : Constant\nBit rate : 384 Kbps\nChannel(s) : 2 channels\nChannel positions : Front: L R\nSampling rate : 48.0 KHz\nBit depth : 16 bits\nCompression mode : Lossy\nStream size : 353 MiB (51%)\n\nScreens : - \n &lt;a href=&quot;\nhttp://imgsparrow.co/image/GQ&quot; rel=&quot;nofollow&quot; target=&quot;_NEW&quot;&gt;\nhttp://imgsparrow.co/image/GQ&lt;/a&gt; &lt;a href=&quot;\nhttp://imgsparrow.co/image/GZ&quot; rel=&quot;nofollow&quot; target=&quot;_NEW&quot;&gt;\nhttp://imgsparrow.co/image/GZ&lt;/a&gt; &lt;a href=&quot;\nhttp://imgsparrow.co/image/Ga&quot; rel=&quot;nofollow&quot; target=&quot;_NEW&quot;&gt;\nhttp://imgsparrow.co/image/Ga&lt;/a&gt; &lt;a href=&quot;\nhttp://imgsparrow.co/image/Gf&quot; rel=&quot;nofollow&quot; target=&quot;_NEW&quot;&gt;\nhttp://imgsparrow.co/image/Gf&lt;/a&gt; &lt;a href=&quot;\nhttp://imgsparrow.co/image/GI&quot; rel=&quot;nofollow&quot; target=&quot;_NEW&quot;&gt;\nhttp://imgsparrow.co/image/GI&lt;/a&gt; &lt;a href=&quot;\nhttp://imgsparrow.co/image/GP&quot; rel=&quot;nofollow&quot; target=&quot;_NEW&quot;&gt;\nhttp://imgsparrow.co/image/GP&lt;/a&gt; &lt;a href=&quot;\nhttp://imgsparrow.co/image/GW&quot; rel=&quot;nofollow&quot; target=&quot;_NEW&quot;&gt;\nhttp://imgsparrow.co/image/GW&lt;/a&gt; &lt;a href=&quot;\nhttp://imgsparrow.co/image/GX&quot; rel=&quot;nofollow&quot; target=&quot;_NEW&quot;&gt;\nhttp://imgsparrow.co/image/GX&lt;/a&gt; &lt;a href=&quot;\nhttp://imgsparrow.co/image/GY&quot; rel=&quot;nofollow&quot; target=&quot;_NEW&quot;&gt;\nhttp://imgsparrow.co/image/GY&lt;/a&gt; &lt;a href=&quot;\nhttp://imgsparrow.co/image/Gc&quot; rel=&quot;nofollow&quot; target=&quot;_NEW&quot;&gt;\nhttp://imgsparrow.co/image/Gc&lt;/a&gt;\n &lt;a href=&quot;\nhttp://imgsparrow.co/image/N2&quot; rel=&quot;nofollow&quot; target=&quot;_NEW&quot;&gt;\nhttp://imgsparrow.co/image/N2&lt;/a&gt;","torrent":{"xt":"urn:btih:482ff34d9439a19a4c3702a58a837fa79158e1fb","amp;dn":"Welcome+To+Karachi+%282015%29+Pre+DvD+Rip+-+X264+-+%5B1CD%5D+-+Team+IcTv","amp;tr":["udp%3A%2F%2Ftracker.openbittorrent.com%3A80","udp%3A%2F%2Fopen.demonii.com%3A1337","udp%3A%2F%2Ftracker.coppersurfer.tk%3A6969","udp%3A%2F%2Fexodus.desync.com%3A6969"],"infoHash":"482ff34d9439a19a4c3702a58a837fa79158e1fb","infoHashBuffer":{"type":"Buffer","data":[72,47,243,77,148,57,161,154,76,55,2,165,138,131,127,167,145,88,225,251]},"announce":[],"urlList":[]}}